<svg xmlns="http://www.w3.org/2000/svg" viewBox="0 0 31.11 25.95"><defs><style>.cls-1{fill:#638bba;}</style></defs><title>Asset 17</title><g id="Layer_2" data-name="Layer 2"><g id="Layer_1-2" data-name="Layer 1"><path class="cls-1" d="M13,26a1.45,1.45,0,0,1-1.06-.44L.44,14a1.49,1.49,0,0,1,0-2.12L11.92.44A1.49,1.49,0,0,1,14,.44a1.51,1.51,0,0,1,0,2.12L3.62,13,14,23.39a1.51,1.51,0,0,1,0,2.12A1.48,1.48,0,0,1,13,26Z"/><path class="cls-1" d="M29.61,14.48H1.5a1.5,1.5,0,0,1,0-3H29.61a1.5,1.5,0,0,1,0,3Z"/></g></g></svg>