<svg xmlns="http://www.w3.org/2000/svg" viewBox="0 0 50.81 47.03"><defs><style>.cls-1{fill:#638bba;}</style></defs><title>Asset 13</title><g id="Layer_2" data-name="Layer 2"><g id="Layer_1-2" data-name="Layer 1"><path class="cls-1" d="M21.63,36.46a5.29,5.29,0,1,0,5.28,5.28A5.29,5.29,0,0,0,21.63,36.46Zm0,8.73a3.45,3.45,0,1,1,3.44-3.45A3.46,3.46,0,0,1,21.63,45.19Z"/><path class="cls-1" d="M36.93,36.46a5.29,5.29,0,1,0,5.29,5.28A5.29,5.29,0,0,0,36.93,36.46Zm0,8.73a3.45,3.45,0,1,1,3.45-3.45A3.45,3.45,0,0,1,36.93,45.19Z"/><path class="cls-1" d="M19.33,16.54h19.9a.92.92,0,1,0,0-1.84H19.33a.92.92,0,1,0,0,1.84Z"/><path class="cls-1" d="M38.28,21h-18a.92.92,0,1,0,0,1.83h18a.92.92,0,1,0,0-1.83Z"/><path class="cls-1" d="M45.59,33.05H14.9l-.69-3.32H45.59a.93.93,0,0,0,.9-.73l4.3-19.84A.92.92,0,0,0,49.89,8H9.73L8.89,4a.92.92,0,0,0-.52-.65L1.3.08A.93.93,0,0,0,.08.54.93.93,0,0,0,.54,1.76l6.64,3,6.07,29.35a.92.92,0,0,0,.9.73H45.59a.92.92,0,1,0,0-1.83ZM48.75,9.88l-3.9,18h-31l-3.72-18Z"/></g></g></svg>