<svg xmlns="http://www.w3.org/2000/svg" viewBox="0 0 33.18 58.55"><defs><style>.cls-1{fill:#638bba;}</style></defs><title>Asset 21</title><g id="Layer_2" data-name="Layer 2"><g id="Layer_1-2" data-name="Layer 1"><path class="cls-1" d="M28.88,0H4.3A4.31,4.31,0,0,0,0,4.3v50a4.31,4.31,0,0,0,4.3,4.3H28.88a4.31,4.31,0,0,0,4.3-4.3V4.3A4.31,4.31,0,0,0,28.88,0ZM2,7.81H31.23V44.89H2ZM4.3,2H28.88A2.35,2.35,0,0,1,31.23,4.3V5.86H2V4.3A2.35,2.35,0,0,1,4.3,2ZM28.88,56.6H4.3A2.35,2.35,0,0,1,2,54.25V46.84H31.23v7.41A2.35,2.35,0,0,1,28.88,56.6Z"/><path class="cls-1" d="M16.59,47.82a3.91,3.91,0,1,0,3.9,3.9A3.91,3.91,0,0,0,16.59,47.82Zm0,5.85a2,2,0,1,1,1.95-2A1.95,1.95,0,0,1,16.59,53.67Z"/><path class="cls-1" d="M12.69,4.88h3.9a1,1,0,1,0,0-1.95h-3.9a1,1,0,1,0,0,1.95Z"/><path class="cls-1" d="M19.52,4.88h1a1,1,0,1,0,0-1.95h-1a1,1,0,1,0,0,1.95Z"/></g></g></svg>