<svg xmlns="http://www.w3.org/2000/svg" viewBox="0 0 57 57"><defs><style>.cls-1{fill:#638bba;}</style></defs><title>Asset 24</title><g id="Layer_2" data-name="Layer 2"><g id="Layer_1-2" data-name="Layer 1"><path class="cls-1" d="M21.39,31.79H2.15A2.14,2.14,0,0,1,0,29.65V2.15A2.15,2.15,0,0,1,2.15,0h27.5a2.14,2.14,0,0,1,2.14,2.15V21.57a1,1,0,0,1-2,0V2.15A.15.15,0,0,0,29.65,2H2.15A.15.15,0,0,0,2,2.15v27.5a.15.15,0,0,0,.15.14H21.39a1,1,0,0,1,0,2Z"/><path class="cls-1" d="M54.85,57H27.35a2.14,2.14,0,0,1-2.14-2.15V27.35a2.14,2.14,0,0,1,2.14-2.14h27.5A2.14,2.14,0,0,1,57,27.35v27.5A2.15,2.15,0,0,1,54.85,57ZM27.35,27.21a.14.14,0,0,0-.14.14v27.5a.15.15,0,0,0,.14.15h27.5a.15.15,0,0,0,.15-.15V27.35a.15.15,0,0,0-.15-.14Z"/><path class="cls-1" d="M22.77,12.46H9a1.15,1.15,0,0,1,0-2.29H22.77a1.15,1.15,0,1,1,0,2.29Z"/><path class="cls-1" d="M15.9,12.46a1.14,1.14,0,0,1-1.15-1.15V6.73a1.15,1.15,0,1,1,2.29,0v4.58A1.14,1.14,0,0,1,15.9,12.46Z"/><path class="cls-1" d="M20.48,26.21a1.14,1.14,0,0,1-.77-.3c-1-.89-9.54-8.87-9.54-14.6a1.15,1.15,0,0,1,2.29,0c0,4,6.35,10.67,8.79,12.91a1.15,1.15,0,0,1-.77,2Z"/><path class="cls-1" d="M11.31,26.21a1.15,1.15,0,0,1-1.14-1.15,1.11,1.11,0,0,1,.37-.84C13,22,19.33,15.32,19.33,11.31a1.15,1.15,0,0,1,2.29,0c0,5.73-8.56,13.71-9.54,14.6A1.14,1.14,0,0,1,11.31,26.21Z"/><path class="cls-1" d="M48,51.42a1.13,1.13,0,0,1-1.07-.75L41.1,35.2,35.3,50.67a1.14,1.14,0,1,1-2.14-.8L40,31.53A1.19,1.19,0,0,1,41.62,31a1.24,1.24,0,0,1,.56.55l6.87,18.34a1.14,1.14,0,0,1-.67,1.47A1.1,1.1,0,0,1,48,51.42Z"/><path class="cls-1" d="M45.69,46.83H36.52a1.15,1.15,0,0,1,0-2.29h9.17a1.15,1.15,0,0,1,0,2.29Z"/><path class="cls-1" d="M50.27,23.92a1.16,1.16,0,0,1-1.15-1.15A14.92,14.92,0,0,0,34.23,7.87a1.15,1.15,0,1,1,0-2.29A17.21,17.21,0,0,1,51.42,22.77,1.16,1.16,0,0,1,50.27,23.92Z"/><path class="cls-1" d="M50.27,23.92a1.13,1.13,0,0,1-.81-.34L44.88,19a1.15,1.15,0,0,1,1.62-1.62L50.15,21l2.64-3.53a1.15,1.15,0,0,1,1.84,1.37h0l-3.44,4.59a1.17,1.17,0,0,1-.84.46Z"/><path class="cls-1" d="M22.77,51.42A17.21,17.21,0,0,1,5.58,34.23a1.15,1.15,0,0,1,2.3,0A14.91,14.91,0,0,0,22.77,49.12a1.15,1.15,0,0,1,0,2.3Z"/><path class="cls-1" d="M3.29,40a1.14,1.14,0,0,1-1.14-1.15,1.2,1.2,0,0,1,.22-.69l3.44-4.58a1.15,1.15,0,0,1,1.61-.23l.12.11L12.12,38a1.15,1.15,0,1,1-1.59,1.65l0,0L6.85,36,4.21,39.5A1.16,1.16,0,0,1,3.29,40Z"/></g></g></svg>