<svg xmlns="http://www.w3.org/2000/svg" viewBox="0 0 66.31 62.76"><defs><style>.cls-1{fill:#638bba;}</style></defs><title>Asset 26</title><g id="Layer_2" data-name="Layer 2"><g id="Layer_1-2" data-name="Layer 1"><path class="cls-1" d="M56.84,23.74a23.69,23.69,0,1,0-47.37-.06v.06A10.05,10.05,0,0,0,0,33.75v1.18A10.06,10.06,0,0,0,10.07,45h.53l4.2,6.69a15.84,15.84,0,0,0,13.56,7.52h.83a4.74,4.74,0,1,0,0-2.37h-.83a13.5,13.5,0,0,1-11.54-6.45L13.38,45h.83a2.38,2.38,0,0,0,2.37-2.37V26.05a2.38,2.38,0,0,0-2.37-2.37H11.84a21.32,21.32,0,0,1,42.63,0H52.1a2.37,2.37,0,0,0-2.36,2.37V42.63A2.37,2.37,0,0,0,52.1,45h4.15A10.06,10.06,0,0,0,66.31,34.93V33.75A10.05,10.05,0,0,0,56.84,23.74ZM33.75,55.66A2.37,2.37,0,1,1,31.38,58,2.38,2.38,0,0,1,33.75,55.66ZM14.21,26.05V42.63H10.07a7.68,7.68,0,0,1-7.7-7.7V33.75a7.68,7.68,0,0,1,7.7-7.7ZM64,34.93a7.68,7.68,0,0,1-7.7,7.7H52.1V26.05h4.15a7.69,7.69,0,0,1,7.7,7.7Z"/></g></g></svg>