<svg xmlns="http://www.w3.org/2000/svg" viewBox="0 0 46.3 42.43"><defs><style>.cls-1{fill:#638bba;}</style></defs><title>Asset 11</title><g id="Layer_2" data-name="Layer 2"><g id="Layer_1-2" data-name="Layer 1"><path class="cls-1" d="M45.63,21.54l-5.69-5.69V5.24a.9.9,0,0,0-.9-.9H34.5a.9.9,0,0,0-.91.9V9.5L24.75.66a2.27,2.27,0,0,0-3.2,0L.66,21.54a2.28,2.28,0,0,0,0,3.21,2.26,2.26,0,0,0,3.21,0l2-2v18.8a.9.9,0,0,0,.9.91H39.5a.9.9,0,0,0,.9-.91V22.73l2,2a2.25,2.25,0,0,0,3.2,0,2.26,2.26,0,0,0,0-3.21ZM35.41,6.15h2.72V14l-2.72-2.73ZM18.86,40.61V29.08h8.59V40.61Zm19.73,0H29.27V28.17a.91.91,0,0,0-.91-.91H18a.9.9,0,0,0-.9.91V40.61H7.72V21L23.16,5.58,38.59,21Zm5.76-17.14a.46.46,0,0,1-.64,0L23.79,3.55a.92.92,0,0,0-1.28,0L2.59,23.47a.45.45,0,0,1-.64,0,.43.43,0,0,1-.13-.32A.42.42,0,0,1,2,22.83L22.83,2a.45.45,0,0,1,.64,0L44.35,22.83a.42.42,0,0,1,.13.32A.43.43,0,0,1,44.35,23.47Z"/></g></g></svg>