<svg xmlns="http://www.w3.org/2000/svg" viewBox="0 0 162.39 162.39"><defs><style>.cls-1{fill:#638bba;}</style></defs><title>Asset 10</title><g id="Layer_2" data-name="Layer 2"><g id="Layer_1-2" data-name="Layer 1"><path class="cls-1" d="M115.49,120.19a2,2,0,0,1-1.27-.45c-.18-.14-4.35-3.61-4.61-8.37a9.29,9.29,0,0,1,3-7.13L117.85,99a4.14,4.14,0,0,0,1.23-3.71,4.31,4.31,0,0,0-1.73-2.56l-.21-.19a4.44,4.44,0,0,0-4.3-1.12,4.26,4.26,0,0,0-1.52,1l-6,6a8.85,8.85,0,0,1-3.74,2.27c-2.2.62-5.59.63-9.19-2.88L84.7,90.05l0,0a17,17,0,0,1-23-.56L50,78.55a2,2,0,0,1,2.73-2.92l11.71,11A13.21,13.21,0,0,0,82,87.08l1.43,1.41L82.12,87a3.88,3.88,0,0,1,5.33.15l7.78,7.77c1.77,1.73,3.56,2.37,5.29,1.88a4.78,4.78,0,0,0,2-1.25l6-6a8.24,8.24,0,0,1,3-2c4.34-1.54,7.71,1.34,8.39,2a8.22,8.22,0,0,1,3.1,4.82,8,8,0,0,1-2.31,7.37l-5.27,5.27a5.36,5.36,0,0,0-1.81,4.1c.17,3,3.12,5.47,3.15,5.5a2,2,0,0,1-1.26,3.54Z"/><path class="cls-1" d="M46,84.44a2,2,0,0,1-1.41-.59,2,2,0,0,1,0-2.82L78.32,47.29a2,2,0,1,1,2.83,2.82L47.43,83.85A2,2,0,0,1,46,84.44Z"/><path class="cls-1" d="M90,80.18a1.46,1.46,0,0,1-.29,0A2,2,0,0,1,88,77.9a15.62,15.62,0,0,0-2.81-11L73.59,54.8A2,2,0,0,1,76.47,52l11.7,12.16.12.14A19.59,19.59,0,0,1,92,78.47,2,2,0,0,1,90,80.18Z"/><path class="cls-1" d="M69.59,60.84a2,2,0,0,1-1.41-.58L53.53,45.61a2,2,0,0,1,2.83-2.83L71,57.43a2,2,0,0,1-1.42,3.41Z"/><path class="cls-1" d="M55.88,74.57A2,2,0,0,1,54.47,74L39.81,59.32a2,2,0,1,1,2.83-2.82L57.29,71.15a2,2,0,0,1-1.41,3.42Z"/><path class="cls-1" d="M138.39,162.39H24a24,24,0,0,1-24-24V24A24,24,0,0,1,24,0H138.39a24,24,0,0,1,24,24V138.39A24,24,0,0,1,138.39,162.39ZM24,4A20,20,0,0,0,4,24V138.39a20,20,0,0,0,20,20H138.39a20,20,0,0,0,20-20V24a20,20,0,0,0-20-20Z"/></g></g></svg>