<svg xmlns="http://www.w3.org/2000/svg" viewBox="0 0 46.99 41.51"><defs><style>.cls-1{fill:#638bba;}</style></defs><title>Asset 14</title><g id="Layer_2" data-name="Layer 2"><g id="Layer_1-2" data-name="Layer 1"><path class="cls-1" d="M23.48,41.51A2.12,2.12,0,0,1,22,40.88L3.93,22.82A13.36,13.36,0,1,1,22.82,3.93l.69.69L24.18,4a13.36,13.36,0,0,1,18.9,0h0a13.39,13.39,0,0,1,0,18.92L25,40.89A2.1,2.1,0,0,1,23.48,41.51ZM13.35,1.62A11.74,11.74,0,0,0,1.62,13.37a11.68,11.68,0,0,0,3.46,8.31L23.14,39.74a.5.5,0,0,0,.68,0l18.1-18a11.76,11.76,0,0,0,0-16.62h0a11.75,11.75,0,0,0-16.62,0L23.51,6.91,21.68,5.08A11.71,11.71,0,0,0,13.35,1.62Z"/></g></g></svg>