<svg xmlns="http://www.w3.org/2000/svg" viewBox="0 0 162.38 162.39"><defs><style>.cls-1{fill:#638bba;}</style></defs><title>Asset 8</title><g id="Layer_2" data-name="Layer 2"><g id="Layer_1-2" data-name="Layer 1"><path class="cls-1" d="M126.94,100.33V75.73a8.14,8.14,0,0,0-8.13-8.13H86.3V62.4A2.32,2.32,0,0,0,84,60.08h-10V44h4.93v4.05a2.32,2.32,0,0,0,4.64,0V44h4.43a2.32,2.32,0,0,0,2.21-3L83.78,21.06a2.31,2.31,0,0,0-2.21-1.61H61.68a2.3,2.3,0,0,0-2.21,1.61L53.1,41a2.31,2.31,0,0,0,.33,2.07,2.34,2.34,0,0,0,1.88,1h14V60.08h-10A2.32,2.32,0,0,0,57,62.4v5.2H43.56a8.13,8.13,0,0,0-8.12,8.13v49.75a8.14,8.14,0,0,0,8.13,8.13h6.55l-2.53,6.12a2.31,2.31,0,0,0,1.25,3,2.28,2.28,0,0,0,.89.18,2.33,2.33,0,0,0,2.15-1.43l3.26-7.9h52.1l3.26,7.9a2.31,2.31,0,0,0,2.15,1.43,2.16,2.16,0,0,0,.88-.18,2.32,2.32,0,0,0,1.26-3l-2.53-6.12h6.55a8.16,8.16,0,0,0,8.14-8.13V100.4S126.94,100.36,126.94,100.33ZM108.81,129H43.56a3.49,3.49,0,0,1-3.48-3.49V103.13H122.3v22.35a3.5,3.5,0,0,1-3.49,3.49ZM84,72.24h34.83a3.49,3.49,0,0,1,3.49,3.49V98.08H40.08V75.73a3.49,3.49,0,0,1,3.49-3.49H84ZM81.65,67.6H61.59V64.72H81.65ZM58.48,39.37l4.89-15.28h16.5l4.89,15.28Z"/><path class="cls-1" d="M76.85,83.83h8.68a2.32,2.32,0,0,0,0-4.64H76.85a2.32,2.32,0,1,0,0,4.64Z"/><path class="cls-1" d="M85.53,109.67H76.85a2.32,2.32,0,1,0,0,4.64h8.68a2.32,2.32,0,1,0,0-4.64Z"/><path class="cls-1" d="M138.38,162.39H24a24,24,0,0,1-24-24V24A24,24,0,0,1,24,0H138.38a24,24,0,0,1,24,24V138.39A24,24,0,0,1,138.38,162.39ZM24,4A20,20,0,0,0,4,24V138.39a20,20,0,0,0,20,20H138.38a20,20,0,0,0,20-20V24a20,20,0,0,0-20-20Z"/></g></g></svg>