<svg xmlns="http://www.w3.org/2000/svg" viewBox="0 0 355.13 460.51"><defs><style>.cls-1{fill:#2d2d2d;}.cls-2{fill:#638bba;}</style></defs><title>Asset 1</title><g id="Layer_2" data-name="Layer 2"><g id="Layer_1-2" data-name="Layer 1"><g id="_Group_" data-name="&lt;Group&gt;"><path id="_Compound_Path_" data-name="&lt;Compound Path&gt;" class="cls-1" d="M324.18,96.68l-35.86,6.2c2,14.29,4,28.36,6.09,43-16.73,2.86-32.88,5.84-49.11,8.26-4.57.68-6.82,2.6-8.23,6.75-2.49,7.35-5.37,14.56-8.49,22.87,3.63.24,6.65.63,9.67.62,18.08-.1,36.17-.36,54.25-.44,13.31,0,17.68,5.62,14.54,18.64q-9.23,38.31-18.54,76.61c-4,2.37-12.13-4.05-12.39,6.43,8.84,3.4,17.72,6.9,26.67,10.22,5.49,2,8.83,5.62,9.11,11.59.41,8.67-2.25,11-10.62,9.15q-25.8-5.57-51.59-11.22c-7.28-1.6-8.07-2.85-4.71-9.8,10.88-22.48,14.33-47.13,21-70.84.24-.83,0-1.78,0-3.67-14.09,1.36-27.89,2.67-41.68,4-9.79,1-19.55,2.25-29.36,2.93-8.24.57-15.33-2.06-20.09-9.36-.68-1-1.56-2-3.24-4-.38,12.22,5.75,18.07,16,22-15.46,12.3-30,24.41-45.28,35.58-3,2.2-9.44,2.45-12.91.76-16.81-8.18-33.14-17.34-49.94-26.31l3.43-6.9c-2.8-5.33-5.83-5.71-10.33-2-7,5.84-14.46,11.22-21.87,16.6S38.9,259.47,31,253.59a54.89,54.89,0,0,1,3.13-4.86c11.56-14.78,23.3-29.42,34.7-44.32,3.59-4.7,6.62-5.06,10.28-.55,13.61,16.73,33.38,24.4,51.34,34.7,1.32.76,5-.11,5.84-1.38,11.32-16.09,23-32,33.05-48.88,3.22-5.41,1.91-13.51,2.82-21.72-11.26,1.84-20.87,3.25-30.42,5-16.43,3-16.35,3.08-18.75-13.57-1.27-8.77-2.83-17.5-4.38-27L84.74,136c7.56-18.3,14.61-35.61,22-52.77.64-1.49,3.55-2.48,5.55-2.81,52.32-8.7,104.72-16.9,156.93-26.2,11.23-2,18.1.55,25,9.22C303.08,74.71,313.37,84.85,324.18,96.68Zm-194.1,70.95c3.18-.31,5.46-.39,7.68-.76,28.18-4.78,56.3-9.88,84.55-14.21,6.75-1,7.47-3.67,6.48-9.36-3.2-18.47-6-37-9.07-55.51-.56-3.4-1.27-6.77-1.91-10.15-6.16,11.61-10.58,23.35-15.67,34.78a11.65,11.65,0,0,1-7.1,5.92c-11.86,2.43-23.89,4-35.85,6-11.43,1.89-22.84,3.85-34.82,5.87C126.32,143,128.14,154.89,130.08,167.63ZM94.49,127.4c1.3.72,1.52.94,1.69.92q48.1-7.51,96.18-15.15c1.57-.25,3.69-1.52,4.24-2.86,5.39-13,10.5-26.07,15.71-39.18-1.32-.45-1.77-.77-2.16-.71Q162.4,78,114.69,85.81a6.16,6.16,0,0,0-4.1,3C105.09,101.54,99.86,114.42,94.49,127.4Zm189.75-11.64c-1.86-11.48-1.78-10.55-13.27-9.39-15.46,1.56-7.89,3.41-23.24-9.35-8.46-7.91-16.58-14.67-23.7-22.47l-.31.16c3.92,24.86,7.83,49.69,11.91,75.58,16.93-2.86,36-6.37,51.67-9.4m-60.77-73c5.8,6.31,10.1,11.45,15.16,16.79,15.17,14,21.29,16.1,40.58,13.84,9.72-1.14,19.37-3.75,30.3-5.73-5.35-5.91-9.58-10.67-13.91-15.34-5.59-6.05-10.27-14.86-17.16-17.24-7.12-2.46-16.43,1.18-24.73,2.46C247.14,64.11,237.56,65.92,226.53,67.84Z"/><path id="_Path_" data-name="&lt;Path&gt;" class="cls-2" d="M213.35,11.89c-.41,3.89-1.16,9.33-1.5,14.8-.42,6.74,1.15,8.1,8,7.12,4.75-.68,9.45-2.35,14.16-2.3,2.73,0,5.92.69,8.15,4,0,4.57-4,5.78-6.5,6.25-25.56,4.9-51.23,9.23-76.85,13.88-4.42.8-6.82-.65-8.33-4.8-1.63-4.5-3.71-8.84-5.67-13.22-2.64-5.92-1.2-9.84,5-12.51,17.42-7.46,34.69-15.29,52.05-22.91C211.85-2.19,214.21-.49,213.35,11.89Z"/><path class="cls-1" d="M81.75,422l25-31.55,28.37.16L86.16,451l-1.89,2.13c-.81.9-1.69,1.81-2.64,2.71a25.05,25.05,0,0,1-2.77,2.32,4.14,4.14,0,0,1-2.16,1l-19-.11c-.81,0-1.46-.59-1.94-1.76a27.71,27.71,0,0,1-1.38-5.4c-.44-2.43-.89-5.54-1.36-9.36s-1.06-8.36-1.74-13.64L32.11,450.73c-.53.51-1.19,1.22-2,2.13s-1.57,1.81-2.43,2.72a22.21,22.21,0,0,1-2.57,2.31,3.93,3.93,0,0,1-2.22,1L3.7,458.75a2.17,2.17,0,0,1-1.94-1.24,10.15,10.15,0,0,1-1.13-3,23.79,23.79,0,0,1-.52-3.83C0,449.3,0,448,0,446.91l.31-57,26.62.14-.18,34L54.36,390.2l24.88.14Z"/><path class="cls-1" d="M111.39,459.34,143,390.69l30.92.17-31.57,68.66Z"/><path class="cls-1" d="M263,423l25-31.55,28.38.15L267.4,452q-.67.78-1.89,2.13c-.81.91-1.69,1.81-2.63,2.72a28.39,28.39,0,0,1-2.77,2.32,4.17,4.17,0,0,1-2.16,1L239,460c-.81,0-1.46-.58-1.94-1.76a27.37,27.37,0,0,1-1.38-5.39q-.66-3.64-1.36-9.36t-1.74-13.65l-19.21,21.84a27.24,27.24,0,0,0-2,2.14c-.76.9-1.58,1.8-2.43,2.71a20.71,20.71,0,0,1-2.57,2.32,3.83,3.83,0,0,1-2.23,1l-19.22-.1A2.2,2.2,0,0,1,183,458.5a10.08,10.08,0,0,1-1.13-3,24.11,24.11,0,0,1-.52-3.83c-.08-1.38-.12-2.64-.11-3.77l.31-57,26.63.15-.19,34L235.6,391.2l24.88.14Z"/><path class="cls-1" d="M292.64,460.34l31.57-68.65,30.92.17-31.57,68.65Z"/></g></g></g></svg>