<svg xmlns="http://www.w3.org/2000/svg" viewBox="0 0 57.39 50.51"><defs><style>.cls-1{fill:#638bba;}</style></defs><title>Asset 27</title><g id="Layer_2" data-name="Layer 2"><g id="Layer_1-2" data-name="Layer 1"><path class="cls-1" d="M25.25,50.51a25.26,25.26,0,1,1,22-37.76.89.89,0,0,1-1.55.88,23.47,23.47,0,1,0-.4,23.93.89.89,0,0,1,1.52.93A25.12,25.12,0,0,1,25.25,50.51Z"/><path class="cls-1" d="M48.88,33.77a.85.85,0,0,1-.63-.26.89.89,0,0,1,0-1.26l7-7-7-7a.89.89,0,0,1,0-1.26.88.88,0,0,1,1.25,0l7.63,7.63a.88.88,0,0,1,0,1.25L49.5,33.51A.85.85,0,0,1,48.88,33.77Z"/><path class="cls-1" d="M56.5,26.14H26.87a.89.89,0,0,1,0-1.78H56.5a.89.89,0,0,1,0,1.78Z"/></g></g></svg>