<svg xmlns="http://www.w3.org/2000/svg" viewBox="0 0 209.05 271.08"><defs><style>.cls-1{fill:#fff;}</style></defs><title>Asset 2</title><g id="Layer_2" data-name="Layer 2"><g id="Layer_1-2" data-name="Layer 1"><g id="_Group_" data-name="&lt;Group&gt;"><path id="_Compound_Path_" data-name="&lt;Compound Path&gt;" class="cls-1" d="M190.83,56.91l-21.11,3.65c1.19,8.41,2.37,16.7,3.59,25.3-9.85,1.68-19.36,3.44-28.91,4.86a5.25,5.25,0,0,0-4.84,4c-1.47,4.33-3.17,8.57-5,13.46,2.13.15,3.91.38,5.69.37,10.64-.06,21.29-.22,31.93-.26,7.84,0,10.41,3.31,8.56,11q-5.43,22.55-10.91,45.09c-2.36,1.39-7.14-2.38-7.29,3.79,5.2,2,10.43,4.06,15.7,6,3.23,1.2,5.19,3.31,5.36,6.82.24,5.11-1.33,6.45-6.25,5.39q-15.19-3.27-30.37-6.6c-4.29-1-4.76-1.68-2.78-5.77,6.41-13.24,8.44-27.75,12.36-41.71a10.09,10.09,0,0,0,0-2.15c-8.29.8-16.42,1.57-24.54,2.37-5.76.57-11.51,1.33-17.28,1.72-4.85.34-9-1.21-11.83-5.51-.4-.61-.91-1.14-1.9-2.36-.23,7.19,3.38,10.63,9.42,12.94-9.1,7.24-17.68,14.37-26.66,20.95-1.76,1.29-5.55,1.44-7.59.44-9.9-4.81-19.51-10.2-29.4-15.48l2-4.06c-1.65-3.14-3.43-3.37-6.08-1.17-4.15,3.43-8.52,6.6-12.88,9.76s-7,3-11.64-.43a33.92,33.92,0,0,1,1.85-2.86c6.8-8.7,13.72-17.32,20.42-26.09,2.12-2.77,3.9-3,6-.33,8,9.85,19.66,14.37,30.23,20.43a3.63,3.63,0,0,0,3.44-.81c6.66-9.47,13.54-18.84,19.45-28.77,1.89-3.19,1.13-8,1.66-12.79C94.69,99.14,89,100,83.41,101c-9.67,1.76-9.62,1.81-11-8-.74-5.16-1.66-10.3-2.57-15.91l-19.92,3c4.46-10.77,8.6-21,13-31.06.38-.88,2.09-1.46,3.27-1.66,30.79-5.12,61.64-9.94,92.38-15.42,6.61-1.18,10.65.32,14.69,5.43C178.41,44,184.47,50,190.83,56.91ZM76.58,98.68c1.87-.18,3.21-.23,4.51-.45,16.59-2.81,33.15-5.82,49.78-8.37,4-.6,4.39-2.15,3.81-5.5-1.89-10.88-3.56-21.79-5.34-32.68-.33-2-.75-4-1.12-6C124.59,52.54,122,59.45,119,66.18a6.82,6.82,0,0,1-4.18,3.48c-7,1.43-14.06,2.38-21.1,3.54-6.73,1.11-13.45,2.27-20.5,3.45C74.36,84.17,75.43,91.18,76.58,98.68ZM55.62,75c.77.42.9.55,1,.53q28.31-4.41,56.62-8.91a3.64,3.64,0,0,0,2.49-1.69c3.17-7.64,6.18-15.34,9.25-23.06-.78-.26-1-.45-1.27-.41q-28.11,4.47-56.2,9a3.64,3.64,0,0,0-2.41,1.75C61.87,59.77,58.78,67.35,55.62,75Zm111.7-6.86c-1.1-6.75-1-6.21-7.81-5.53-9.1.92-4.65,2-13.68-5.5-5-4.66-9.76-8.64-14-13.22l-.19.09c2.31,14.63,4.61,29.25,7,44.49,10-1.68,21.18-3.75,30.41-5.54m-35.77-43c3.41,3.71,6,6.73,8.93,9.88,8.93,8.26,12.53,9.48,23.88,8.14,5.72-.67,11.41-2.2,17.84-3.37-3.15-3.48-5.64-6.28-8.19-9-3.29-3.56-6.05-8.74-10.1-10.15s-9.67.7-14.56,1.45C145.48,37.74,139.84,38.81,133.35,39.94Z"/><path id="_Path_" data-name="&lt;Path&gt;" class="cls-1" d="M125.59,7c-.24,2.29-.68,5.49-.88,8.71-.25,4,.68,4.77,4.71,4.19,2.79-.4,5.56-1.38,8.33-1.35a5.46,5.46,0,0,1,4.8,2.34c0,2.69-2.37,3.4-3.83,3.68-15,2.89-30.15,5.44-45.23,8.17-2.61.47-4-.38-4.91-2.83-1-2.65-2.18-5.2-3.33-7.78-1.56-3.48-.71-5.79,2.94-7.36,10.26-4.39,20.42-9,30.64-13.48C124.71-1.29,126.1-.29,125.59,7Z"/><path class="cls-1" d="M48.12,248.44l14.75-18.57,16.7.09L50.72,265.5l-1.11,1.26q-.72.8-1.56,1.59a14.82,14.82,0,0,1-1.63,1.37,2.44,2.44,0,0,1-1.27.57L34,270.23c-.47,0-.85-.35-1.14-1A16.55,16.55,0,0,1,32,266c-.26-1.43-.53-3.26-.8-5.51s-.62-4.92-1-8L18.9,265.33c-.31.3-.7.72-1.15,1.25s-.93,1.07-1.43,1.6a12.27,12.27,0,0,1-1.51,1.36,2.29,2.29,0,0,1-1.31.57l-11.32-.06A1.31,1.31,0,0,1,1,269.32a6.54,6.54,0,0,1-.66-1.77,13.61,13.61,0,0,1-.3-2.25c0-.82-.07-1.56-.07-2.22l.18-33.56,15.67.09-.11,20L32,229.7l14.64.08Z"/><path class="cls-1" d="M65.57,270.4,84.16,230l18.2.1L83.78,270.5Z"/><path class="cls-1" d="M154.81,249l14.74-18.58,16.71.1-28.85,35.54-1.11,1.25c-.48.53-1,1.07-1.56,1.6a14.82,14.82,0,0,1-1.63,1.37,2.41,2.41,0,0,1-1.27.56l-11.16-.06c-.47,0-.85-.35-1.14-1a15.89,15.89,0,0,1-.81-3.17q-.39-2.14-.8-5.51t-1-8l-11.31,12.86c-.31.31-.7.72-1.15,1.26s-.93,1.06-1.44,1.6a11.66,11.66,0,0,1-1.51,1.36,2.31,2.31,0,0,1-1.31.57l-11.32-.06a1.32,1.32,0,0,1-1.14-.74,6,6,0,0,1-.66-1.76,13.73,13.73,0,0,1-.31-2.25q-.06-1.23-.06-2.22l.18-33.56,15.67.09-.11,20,16.26-19.94,14.64.09Z"/><path class="cls-1" d="M172.26,271l18.59-40.42,18.2.1-18.58,40.41Z"/></g></g></g></svg>