<svg xmlns="http://www.w3.org/2000/svg" viewBox="0 0 162.38 162.39"><defs><style>.cls-1{fill:#638bba;}</style></defs><title>Asset 7</title><g id="Layer_2" data-name="Layer 2"><g id="Layer_1-2" data-name="Layer 1"><path class="cls-1" d="M133.74,121.06h-5.43V73.18a9.05,9.05,0,0,0,5.43-8.3V61.26h0a1.55,1.55,0,0,0,0-.43L128.31,39.3v-7a1.82,1.82,0,0,0-1.82-1.81H35.89a1.81,1.81,0,0,0-1.81,1.81v7L28.64,60.83a1.55,1.55,0,0,0,0,.43h0v3.62a9.06,9.06,0,0,0,5.44,8.3v47.88H28.64a1.81,1.81,0,0,0-1.81,1.81v7.25a1.81,1.81,0,0,0,1.81,1.81h105.1a1.81,1.81,0,0,0,1.81-1.81v-7.25A1.81,1.81,0,0,0,133.74,121.06Zm-9.06-50.74a5.43,5.43,0,0,1-5.43-5.44V63.07h10.87v1.81A5.44,5.44,0,0,1,124.68,70.32Zm-65.4-29-1.5,18.12H47.09l3-18.12Zm53,0,3,18.12H104.6l-1.5-18.12Zm-12.81,0L101,59.45H90.25V41.33ZM86.63,59.45H75.76V41.33H86.63Zm-14.5,0H61.42l1.51-18.12h9.2V59.45ZM46.76,63.07H57.64v1.81a5.44,5.44,0,1,1-10.88,0Zm14.5,0H72.13v1.81a5.44,5.44,0,1,1-10.87,0V63.07Zm14.5,0H86.63v1.81a5.44,5.44,0,1,1-10.87,0Zm14.49,0h10.87v1.81a5.44,5.44,0,1,1-10.87,0Zm14.5,0h10.87v1.81a5.44,5.44,0,1,1-10.87,0ZM119,59.45l-3-18.12H125l4.53,18.12Zm5.71-25.37V37.7h-87V34.08ZM37.3,41.33h9.06l-3,18.12H32.77Zm-5,23.55V63.07H43.14v1.81a5.44,5.44,0,1,1-10.87,0Zm5.43,9.06A9.06,9.06,0,0,0,45,70.32a9.06,9.06,0,0,0,14.5,0,9.06,9.06,0,0,0,12.68,1.81,8.63,8.63,0,0,0,1.81-1.81,9.07,9.07,0,0,0,12.69,1.81,8.87,8.87,0,0,0,1.81-1.81,9.06,9.06,0,0,0,12.68,1.81,8.92,8.92,0,0,0,1.82-1.81,9.06,9.06,0,0,0,12.68,1.81,8.63,8.63,0,0,0,1.81-1.81,9.06,9.06,0,0,0,7.25,3.62v47.12h-3.62V83a1.82,1.82,0,0,0-1.82-1.81H101.12A1.81,1.81,0,0,0,99.31,83v38.06H37.7Zm79.73,47.12H102.94V84.82h14.49Zm14.5,7.25H30.45v-3.63H131.93v3.63Z"/><path class="cls-1" d="M93.88,81.19H43.14A1.81,1.81,0,0,0,41.33,83v29a1.81,1.81,0,0,0,1.81,1.81H93.88A1.81,1.81,0,0,0,95.69,112V83A1.81,1.81,0,0,0,93.88,81.19Zm-1.82,29H45V84.82H92.06Z"/><rect class="cls-1" x="52.52" y="92.07" width="10.26" height="3.62" rx="1.81" ry="1.81" transform="translate(-49.5 68.26) rotate(-45)"/><rect class="cls-1" x="54.27" y="94.78" width="23.07" height="3.62" rx="1.81" ry="1.81" transform="translate(-49.03 74.82) rotate(-45)"/><rect class="cls-1" x="68.83" y="99.3" width="10.26" height="3.62" rx="1.81" ry="1.81" transform="translate(-49.84 81.91) rotate(-45)"/><path class="cls-1" d="M138.38,162.39H24a24,24,0,0,1-24-24V24A24,24,0,0,1,24,0H138.38a24,24,0,0,1,24,24V138.39A24,24,0,0,1,138.38,162.39ZM24,4A20,20,0,0,0,4,24V138.39a20,20,0,0,0,20,20H138.38a20,20,0,0,0,20-20V24a20,20,0,0,0-20-20Z"/></g></g></svg>