<svg xmlns="http://www.w3.org/2000/svg" viewBox="0 0 51.19 60.04"><defs><style>.cls-1{fill:#638bba;}</style></defs><title>Asset 22</title><g id="Layer_2" data-name="Layer 2"><g id="Layer_1-2" data-name="Layer 1"><path class="cls-1" d="M5.56,36.69A1.11,1.11,0,0,0,4.45,37.8v4.45a1.11,1.11,0,0,0,2.22,0V37.8A1.11,1.11,0,0,0,5.56,36.69Z"/><path class="cls-1" d="M10,38.92A1.1,1.1,0,0,0,8.9,40v4.45a1.11,1.11,0,1,0,2.22,0V40A1.11,1.11,0,0,0,10,38.92Z"/><path class="cls-1" d="M51.15,42.64V15.57a1.11,1.11,0,0,0-.55-1L26.14.15A1.14,1.14,0,0,0,25,.15L.55,14.61s0,0-.07.05l-.06.05A1.27,1.27,0,0,0,.17,15l0,0h0a1.09,1.09,0,0,0-.12.36s0,.07,0,.1a.3.3,0,0,0,0,.1V44.48a1.1,1.1,0,0,0,.55,1L25,59.89l.09,0,.09,0A1,1,0,0,0,26,60l.09,0,.09,0,4.3-2.54h0L32.79,56l2-1.14,14.13-8.13,1.63-.93a1.21,1.21,0,0,0,.6-1V42.69l0,0ZM47.82,15.55,25.57,28.73,19.24,25,41.51,11.82Zm-8.5-5L17.05,23.69l-5.78-3.41,9.31-5.51a.87.87,0,0,0,.23-.19L33.54,7.12ZM15.94,25.62V33l-5.75-3.39V22.22ZM25.57,2.4l5.79,3.42L19,13.05a1.12,1.12,0,0,0-.24.19L9.08,19,3.3,15.57ZM24.46,57,2.22,43.84V17.52L8,20.91v9.37a1.12,1.12,0,0,0,.54,1l8,4.71a1.13,1.13,0,0,0,.57.15A1.11,1.11,0,0,0,18.16,35V26.93l6.3,3.73V57ZM48.92,35.92V44L34.48,52.42l-4,2.35h0l-1,.58L26.69,57V30.66L48.92,17.48V35.92Z"/></g></g></svg>