<svg xmlns="http://www.w3.org/2000/svg" viewBox="0 0 162.38 162.39"><defs><style>.cls-1{fill:#638bba;}</style></defs><title>Asset 9</title><g id="Layer_2" data-name="Layer 2"><g id="Layer_1-2" data-name="Layer 1"><path class="cls-1" d="M106.57,72.73a23.62,23.62,0,0,0-.66-10.89l-1.27-4.18a9.08,9.08,0,0,0-17.2,0l-1.28,4.18a23.62,23.62,0,0,0-.65,10.89,10.22,10.22,0,0,0,5.27,7.13l-1.42,31.82a6.27,6.27,0,0,0,1.58,4.87,6.92,6.92,0,0,0,9.77.44c.15-.14.3-.29.44-.44a6.2,6.2,0,0,0,1.58-4.74L101.3,79.86a10.27,10.27,0,0,0,5.27-7.13Zm-3.9-.69a6.28,6.28,0,0,1-4.11,4.72,2,2,0,0,0-1.28,1.95l1.5,33.41a2.26,2.26,0,0,1-.59,1.79,3.05,3.05,0,0,1-4.3,0A2.36,2.36,0,0,1,93.3,112l1.5-33.28a2,2,0,0,0-1.28-1.95A6.27,6.27,0,0,1,89.41,72,19.61,19.61,0,0,1,90,63l1.27-4.19a5.14,5.14,0,0,1,9.63,0L102.12,63a19.48,19.48,0,0,1,.55,9Z"/><path class="cls-1" d="M76.65,72.7a2,2,0,0,0,.58-1.4V53.48a2,2,0,0,0-4,0v17l-5.35,5.35a2,2,0,0,0-.58,1.5L69.07,112a2.7,2.7,0,0,1-.75,2,2.79,2.79,0,0,1-3.94,0l0,0a2.7,2.7,0,0,1-.75-2l1.75-34.64a2,2,0,0,0-.58-1.5l-5.36-5.35v-17a2,2,0,0,0-4,0V71.3A2,2,0,0,0,56,72.7L61.36,78l-1.69,33.77a6.69,6.69,0,0,0,13.36.65c0-.22,0-.43,0-.65L71.34,78Z"/><path class="cls-1" d="M63.38,71.3a2,2,0,0,0,2-2V53.48a2,2,0,0,0-4,0V69.32A2,2,0,0,0,63.38,71.3Z"/><path class="cls-1" d="M67.34,53.48V69.32a2,2,0,0,0,4,0V53.48a2,2,0,0,0-4,0Z"/><path class="cls-1" d="M81.19,21.81a59.38,59.38,0,1,0,59.38,59.38A59.39,59.39,0,0,0,81.19,21.81Zm0,114.81a55.43,55.43,0,1,1,55.43-55.43A55.43,55.43,0,0,1,81.19,136.62Z"/><path class="cls-1" d="M85.39,116.58a36.78,36.78,0,0,1-8.39,0,2,2,0,1,0-.46,3.93,40.18,40.18,0,0,0,9.3,0,2,2,0,0,0-.38-3.94h-.07Z"/><path class="cls-1" d="M108.68,55.45a2,2,0,0,0-.24,2.79,35.62,35.62,0,0,1-2.1,48.19,2,2,0,0,0,2.8,2.8,39.58,39.58,0,0,0,2.34-53.54,2,2,0,0,0-2.79-.25Z"/><path class="cls-1" d="M67.92,48a2.1,2.1,0,0,0,.7-.12,36,36,0,0,1,21-1.29,2,2,0,0,0,.93-3.85,40,40,0,0,0-23.3,1.43,2,2,0,0,0-1.16,2.55A2,2,0,0,0,67.93,48Z"/><path class="cls-1" d="M45.56,81.19a35.37,35.37,0,0,1,6.81-20.95,2,2,0,1,0-3.16-2.38l0,0a39.58,39.58,0,0,0,4,51.23,2,2,0,0,0,2.8-2.8h0A35.42,35.42,0,0,1,45.56,81.19Z"/><path class="cls-1" d="M138.38,162.39H24a24,24,0,0,1-24-24V24A24,24,0,0,1,24,0H138.38a24,24,0,0,1,24,24V138.39A24,24,0,0,1,138.38,162.39ZM24,4A20,20,0,0,0,4,24V138.39a20,20,0,0,0,20,20H138.38a20,20,0,0,0,20-20V24a20,20,0,0,0-20-20Z"/></g></g></svg>