<svg xmlns="http://www.w3.org/2000/svg" viewBox="0 0 44.1 57.41"><defs><style>.cls-1{fill:#638bba;}</style></defs><title>Asset 25</title><g id="Layer_2" data-name="Layer 2"><g id="Layer_1-2" data-name="Layer 1"><path class="cls-1" d="M44.09,9.79A.86.86,0,0,0,44,9.56l0-.09a.79.79,0,0,0-.17-.25L34.9.26h0a.73.73,0,0,0-.26-.17l-.08,0a1,1,0,0,0-.23,0H.88A.87.87,0,0,0,0,.88V56.53a.87.87,0,0,0,.88.88H43.22a.87.87,0,0,0,.88-.88V9.84S44.09,9.81,44.09,9.79ZM41.1,9h-6V3Zm1.24,46.69H1.76V1.76H33.39V9.84a.88.88,0,0,0,.88.88h8.07Z"/><rect class="cls-1" x="5.41" y="30.88" width="33.28" height="2.04" rx="1.02" ry="1.02"/><rect class="cls-1" x="5.41" y="25.61" width="33.28" height="2.04" rx="1.02" ry="1.02"/><rect class="cls-1" x="5.41" y="20.33" width="33.28" height="2.04" rx="1.02" ry="1.02"/><rect class="cls-1" x="5.41" y="36.15" width="33.28" height="2.04" rx="1.02" ry="1.02"/><rect class="cls-1" x="5.41" y="41.41" width="33.28" height="2.04" rx="1.02" ry="1.02"/><rect class="cls-1" x="5.41" y="46.68" width="15.69" height="2.04" rx="1.02" ry="1.02"/></g></g></svg>