<svg xmlns="http://www.w3.org/2000/svg" viewBox="0 0 48.16 48.16"><defs><style>.cls-1{fill:#638bba;}</style></defs><title>Asset 15</title><g id="Layer_2" data-name="Layer 2"><g id="Layer_1-2" data-name="Layer 1"><path class="cls-1" d="M26.12,48.16H22A3.78,3.78,0,0,1,18.3,45l-.45-2.7a18.76,18.76,0,0,1-2.16-.88L13.43,43a3.86,3.86,0,0,1-4.87-.41L5.68,39.74a3.77,3.77,0,0,1-.41-4.88l1.58-2.19a17.62,17.62,0,0,1-.95-2.25L3.16,30A3.78,3.78,0,0,1,0,26.21V22.14a3.76,3.76,0,0,1,3.16-3.73L5.82,18a18,18,0,0,1,.92-2.27L5.13,13.43a3.78,3.78,0,0,1,.4-4.88l2.9-2.88a3.86,3.86,0,0,1,4.88-.41l2.2,1.59a19,19,0,0,1,2.24-.95l.47-2.74A3.78,3.78,0,0,1,22,0H26a3.78,3.78,0,0,1,3.74,3.16l.44,2.66a18,18,0,0,1,2.38,1L34.82,5.2a3.86,3.86,0,0,1,4.87.41l2.88,2.88A3.77,3.77,0,0,1,43,13.37l-1.59,2.22a18.51,18.51,0,0,1,.93,2.26l2.7.46a3.73,3.73,0,0,1,3.14,3.75v4.06A3.76,3.76,0,0,1,45,29.85l-2.7.45a18,18,0,0,1-.93,2.26L43,34.79a3.78,3.78,0,0,1-.41,4.88l-2.88,2.88a3.86,3.86,0,0,1-4.88.41l-2.22-1.59a17.88,17.88,0,0,1-2.26.93L29.85,45A3.76,3.76,0,0,1,26.12,48.16ZM15.61,39.42a.94.94,0,0,1,.43.1,17.83,17.83,0,0,0,2.9,1.2.91.91,0,0,1,.64.73l.54,3.25A1.94,1.94,0,0,0,22,46.32h4.08A1.93,1.93,0,0,0,28,44.7l.55-3.26a.92.92,0,0,1,.64-.72,18.38,18.38,0,0,0,3-1.24.92.92,0,0,1,1,.06l2.67,1.92a2,2,0,0,0,2.5-.21l2.89-2.89a1.94,1.94,0,0,0,.21-2.5l-1.92-2.69a.92.92,0,0,1-.07-1,16.35,16.35,0,0,0,1.24-3,1,1,0,0,1,.74-.65L44.7,28a1.93,1.93,0,0,0,1.62-1.91V22a1.91,1.91,0,0,0-1.6-1.91h0l-3.25-.55a.92.92,0,0,1-.72-.64,17.92,17.92,0,0,0-1.24-3,.92.92,0,0,1,.06-1l1.92-2.68a1.94,1.94,0,0,0-.21-2.5L38.38,6.92A2,2,0,0,0,35.9,6.7L33.2,8.62a.92.92,0,0,1-1,.07,16.58,16.58,0,0,0-3.11-1.28.92.92,0,0,1-.64-.73L28,3.47A1.94,1.94,0,0,0,26,1.85H22A1.94,1.94,0,0,0,20,3.47l-.56,3.29a.91.91,0,0,1-.63.72,17.39,17.39,0,0,0-3,1.26.92.92,0,0,1-1-.06L12.23,6.76A2,2,0,0,0,9.74,7L6.84,9.86a1.94,1.94,0,0,0-.21,2.5l1.93,2.72a.9.9,0,0,1,.07,1,16.83,16.83,0,0,0-1.22,3,.91.91,0,0,1-.73.64l-3.21.55a1.93,1.93,0,0,0-1.62,1.91v4.07a1.94,1.94,0,0,0,1.62,1.92l3.29.56a.91.91,0,0,1,.72.64,17.63,17.63,0,0,0,1.26,3,.92.92,0,0,1-.06,1L6.77,35.94A1.93,1.93,0,0,0,7,38.43l2.89,2.88a2,2,0,0,0,2.48.22l2.73-1.94A.9.9,0,0,1,15.61,39.42Z"/><path class="cls-1" d="M24.09,33.18a9.1,9.1,0,1,1,9.1-9.1A9.11,9.11,0,0,1,24.09,33.18Zm0-16.66a7.56,7.56,0,1,0,7.56,7.56A7.57,7.57,0,0,0,24.09,16.52Z"/></g></g></svg>